# Blender 4.1.1
# www.blender.org
mtllib wingEnemy.mtl
o 立方体
v -0.136331 0.016084 0.019403
v -0.136331 -0.016084 0.019403
v -0.136331 0.016084 -0.019403
v -0.136331 -0.016084 -0.019403
v 0.136331 0.016084 0.019403
v 0.136331 -0.016084 0.019403
v 0.136331 0.016084 -0.019403
v 0.136331 -0.016084 -0.019403
v -0.136331 0.015657 -0.020126
v -0.136331 -0.015657 -0.020126
v -0.136331 0.076415 -0.231998
v -0.136331 -0.076415 -0.231998
v 0.136331 0.015657 -0.020126
v 0.136331 -0.015657 -0.020126
v 0.136331 0.076415 -0.231998
v 0.136331 -0.076415 -0.231998
v -0.136331 -0.000000 -0.020126
v -0.136331 -0.000000 -0.046520
v 0.136331 -0.000000 -0.046520
v 0.136331 -0.000000 -0.020126
v -0.136331 0.015657 0.020126
v -0.136331 -0.015657 0.020126
v -0.136331 0.076415 0.231998
v -0.136331 -0.076415 0.231998
v 0.136331 0.015657 0.020126
v 0.136331 -0.015657 0.020126
v 0.136331 0.076415 0.231998
v 0.136331 -0.076415 0.231998
v -0.136331 0.000000 0.020126
v -0.136331 0.000000 0.046520
v 0.136331 0.000000 0.046520
v 0.136331 0.000000 0.020126
v -0.136331 0.015657 -0.020126
v -0.136331 -0.015657 -0.020126
v -0.136331 0.076415 -0.231998
v -0.136331 -0.076415 -0.231998
v 0.136331 0.015657 -0.020126
v 0.136331 -0.015657 -0.020126
v 0.136331 0.076415 -0.231998
v 0.136331 -0.076415 -0.231998
v -0.136331 -0.000000 -0.020126
v -0.136331 -0.000000 -0.046520
v 0.136331 -0.000000 -0.046520
v 0.136331 -0.000000 -0.020126
v -0.218969 -0.016084 0.019403
v -0.218969 -0.016084 -0.019403
v -0.135143 0.016084 0.019403
v -0.135143 -0.016084 0.019403
v -0.135143 0.016084 -0.019403
v -0.135143 -0.016084 -0.019403
v -0.218969 -0.007013 0.019403
v -0.152815 0.016084 0.019403
v -0.152815 0.016084 -0.019403
v -0.218969 -0.007013 -0.019403
vn -1.0000 -0.0000 -0.0000
vn -0.0000 -0.0000 -1.0000
vn 1.0000 -0.0000 -0.0000
vn -0.0000 -0.0000 1.0000
vn -0.0000 1.0000 -0.0000
vn -0.0000 -1.0000 -0.0000
vn -0.0000 0.9246 -0.3809
vn -0.0000 0.9613 0.2757
vn -0.0000 -0.9613 0.2757
vn -0.0000 -0.9246 -0.3809
vn -0.0000 0.9246 0.3809
vn -0.0000 0.9613 -0.2757
vn -0.0000 -0.9613 -0.2757
vn -0.0000 -0.9246 0.3809
vn -0.3296 0.9441 -0.0000
vt 0.115246 0.885335
vt 0.065430 0.835520
vt 0.065430 0.885335
vt 0.165062 0.885335
vt 0.115246 0.835520
vt 0.214877 0.885335
vt 0.165062 0.835520
vt 0.264693 0.885335
vt 0.214877 0.835520
vt 0.214877 0.935151
vt 0.165062 0.935151
vt 0.165062 0.785704
vt 0.831123 0.593365
vt 0.868037 0.608775
vt 0.867006 0.599898
vt 0.769934 0.578733
vt 0.769917 0.871159
vt 0.729857 0.581735
vt 0.737778 0.866174
vt 0.712725 0.568320
vt 0.733207 0.572235
vt 0.688295 0.543569
vt 0.839076 0.301329
vt 0.793980 0.283036
vt 0.688544 0.867545
vt 0.714308 0.559032
vt 0.733391 0.561863
vt 0.871159 0.307211
vt 0.871159 0.591864
vt 0.068553 0.390622
vt 0.105467 0.375212
vt 0.069583 0.381745
vt 0.166672 0.653006
vt 0.166655 0.360580
vt 0.206733 0.363581
vt 0.203383 0.354081
vt 0.223864 0.350167
vt 0.097513 0.083175
vt 0.248294 0.325416
vt 0.142610 0.064882
vt 0.248045 0.649392
vt 0.198811 0.648021
vt 0.222281 0.340878
vt 0.203198 0.343709
vt 0.065430 0.089057
vt 0.065430 0.373710
vt 0.431242 0.342676
vt 0.394328 0.327266
vt 0.395359 0.336143
vt 0.492431 0.357308
vt 0.492448 0.064882
vt 0.532508 0.354307
vt 0.524587 0.069867
vt 0.549640 0.367721
vt 0.529158 0.363807
vt 0.574070 0.392472
vt 0.423289 0.634713
vt 0.468385 0.653006
vt 0.573821 0.068496
vt 0.548057 0.377010
vt 0.528974 0.374179
vt 0.391206 0.628831
vt 0.391206 0.344178
vt 0.417028 0.826390
vt 0.404942 0.876205
vt 0.420257 0.876205
vt 0.420257 0.826390
vt 0.470072 0.876205
vt 0.470072 0.826390
vt 0.485387 0.876205
vt 0.473301 0.826390
vt 0.485387 0.862157
vt 0.535203 0.876205
vt 0.535203 0.862157
vt 0.470072 0.891520
vt 0.470072 0.785406
vt 0.420257 0.823161
vt 0.470072 0.823161
vt 0.264693 0.835520
vt 0.214877 0.785704
vt 0.710728 0.577631
vt 0.680623 0.583106
vt 0.225862 0.359478
vt 0.255967 0.364952
vt 0.551637 0.358410
vt 0.581742 0.352936
vt 0.404942 0.862157
vt 0.420257 0.891520
vt 0.420257 0.785406
s 0
usemtl マテリアル
f 3/1/1 2/2/1 1/3/1
f 7/4/2 4/5/2 3/1/2
f 5/6/3 8/7/3 7/4/3
f 1/8/4 6/9/4 5/6/4
f 1/10/5 7/4/5 3/11/5
f 6/9/6 4/12/6 8/7/6
f 18/13/1 10/14/1 17/15/1
f 19/16/7 12/17/7 18/13/7
f 19/16/3 14/18/3 16/19/3
f 17/20/4 14/18/4 20/21/4
f 9/22/8 15/23/8 11/24/8
f 14/18/9 12/25/9 16/19/9
f 9/26/4 20/21/4 13/27/4
f 13/27/3 19/16/3 15/23/3
f 15/23/10 18/13/10 11/28/10
f 9/29/1 18/13/1 17/15/1
f 22/30/1 30/31/1 29/32/1
f 24/33/11 31/34/11 30/31/11
f 31/34/3 26/35/3 32/36/3
f 26/35/2 29/37/2 32/36/2
f 27/38/12 21/39/12 23/40/12
f 24/41/13 26/35/13 28/42/13
f 32/36/2 21/43/2 25/44/2
f 31/34/3 25/44/3 27/38/3
f 30/31/14 27/38/14 23/45/14
f 21/46/1 30/31/1 23/45/1
f 42/47/1 34/48/1 41/49/1
f 43/50/7 36/51/7 42/47/7
f 43/50/3 38/52/3 40/53/3
f 41/54/4 38/52/4 44/55/4
f 33/56/8 39/57/8 35/58/8
f 38/52/9 36/59/9 40/53/9
f 33/60/4 44/55/4 37/61/4
f 37/61/3 43/50/3 39/57/3
f 39/57/10 42/47/10 35/62/10
f 33/63/1 42/47/1 41/49/1
f 52/64/4 45/65/4 48/66/4
f 47/67/3 50/68/3 49/69/3
f 46/70/2 53/71/2 50/68/2
f 54/72/1 45/73/1 51/74/1
f 48/66/6 46/75/6 50/68/6
f 54/76/15 52/77/15 53/78/15
f 52/77/5 49/69/5 53/78/5
f 3/1/1 4/5/1 2/2/1
f 7/4/2 8/7/2 4/5/2
f 5/6/3 6/9/3 8/7/3
f 1/8/4 2/79/4 6/9/4
f 1/10/5 5/6/5 7/4/5
f 6/9/6 2/80/6 4/12/6
f 18/13/1 12/17/1 10/14/1
f 19/16/7 16/19/7 12/17/7
f 19/16/3 20/21/3 14/18/3
f 17/20/4 10/81/4 14/18/4
f 9/22/8 13/27/8 15/23/8
f 14/18/9 10/82/9 12/25/9
f 9/26/4 17/20/4 20/21/4
f 13/27/3 20/21/3 19/16/3
f 15/23/10 19/16/10 18/13/10
f 9/29/1 11/28/1 18/13/1
f 22/30/1 24/33/1 30/31/1
f 24/33/11 28/42/11 31/34/11
f 31/34/3 28/42/3 26/35/3
f 26/35/2 22/83/2 29/37/2
f 27/38/12 25/44/12 21/39/12
f 24/41/13 22/84/13 26/35/13
f 32/36/2 29/37/2 21/43/2
f 31/34/3 32/36/3 25/44/3
f 30/31/14 31/34/14 27/38/14
f 21/46/1 29/32/1 30/31/1
f 42/47/1 36/51/1 34/48/1
f 43/50/7 40/53/7 36/51/7
f 43/50/3 44/55/3 38/52/3
f 41/54/4 34/85/4 38/52/4
f 33/56/8 37/61/8 39/57/8
f 38/52/9 34/86/9 36/59/9
f 33/60/4 41/54/4 44/55/4
f 37/61/3 44/55/3 43/50/3
f 39/57/10 43/50/10 42/47/10
f 33/63/1 35/62/1 42/47/1
f 48/66/4 47/67/4 52/64/4
f 52/64/4 51/87/4 45/65/4
f 47/67/3 48/66/3 50/68/3
f 54/72/2 53/71/2 46/70/2
f 53/71/2 49/69/2 50/68/2
f 54/72/1 46/70/1 45/73/1
f 48/66/6 45/88/6 46/75/6
f 54/76/15 51/89/15 52/77/15
f 52/77/5 47/67/5 49/69/5
