# Blender 4.2.3 LTS
# www.blender.org
mtllib Dock.mtl
o 立方体.001
v 10.283136 -10.283136 -10.283136
v 9.203280 -9.203280 -9.203280
v 10.283136 10.283136 -10.283136
v 9.203280 9.203280 -9.203280
v 10.283136 -10.283136 10.283136
v 9.203280 -9.203280 9.203280
v 10.283136 10.283136 10.283136
v 9.203280 9.203280 9.203280
v -10.283136 -10.283136 -10.283136
v -9.203280 -9.203280 -9.203280
v -10.283136 10.283136 -10.283136
v -9.203280 9.203280 -9.203280
v -10.283136 -10.283136 10.283136
v -9.203280 -9.203280 9.203280
v -10.283136 10.283136 10.283136
v -9.203280 9.203280 9.203280
v -10.283136 -0.132300 1.000000
v -10.283136 1.867699 -1.000000
v -10.283136 1.867699 1.000000
v -10.283136 -0.132300 -1.000000
v -9.203280 -0.132300 -1.000000
v -9.203280 -0.132300 1.000000
v -9.203280 1.867699 -1.000000
v -9.203280 1.867699 1.000000
v 9.265777 -0.340659 -0.867468
v 9.265777 -0.166639 -0.867468
v 9.265777 -0.340659 0.867468
v 9.265777 -0.166639 0.867468
v -9.278054 -0.340659 -0.867468
v -9.278054 -0.166639 -0.867468
v -9.278054 -0.340659 0.867468
v -9.278054 -0.166639 0.867468
v 0.483181 -0.191989 -0.536218
v 0.820809 0.375561 -0.536218
v 0.483181 -0.191989 0.536218
v 0.820809 0.375561 0.536218
v 0.435984 -0.163913 -0.536218
v 0.773612 0.403638 -0.536218
v 0.435984 -0.163913 0.536218
v 0.773612 0.403638 0.536218
vn 1.0000 -0.0000 -0.0000
vn -0.0000 -0.0000 1.0000
vn -1.0000 -0.0000 -0.0000
vn -0.0000 -0.0000 -1.0000
vn -0.0000 -1.0000 -0.0000
vn -0.0000 1.0000 -0.0000
vn 0.8594 -0.5113 -0.0000
vn -0.8594 0.5113 -0.0000
vn -0.5113 -0.8594 -0.0000
vn 0.5113 0.8594 -0.0000
vt 0.250000 0.556487
vt 0.153243 0.653243
vt 0.153243 0.556487
vt 0.250000 0.653243
vt 0.153243 0.750000
vt 0.250000 0.750000
vt 0.250000 0.846757
vt 0.206326 0.793674
vt 0.153243 0.846757
vt 0.196917 0.793674
vt 0.196917 0.803083
vt 0.153243 0.943513
vt 0.056487 0.846757
vt 0.056487 0.750000
vt 0.346757 0.750000
vt 0.153243 0.153243
vt 0.250000 0.056487
vt 0.153243 0.056487
vt 0.153243 0.250000
vt 0.250000 0.153243
vt 0.250000 0.250000
vt 0.206878 0.303635
vt 0.250000 0.346757
vt 0.153243 0.346757
vt 0.196365 0.293122
vt 0.153243 0.443513
vt 0.056487 0.346757
vt 0.056487 0.250000
vt 0.346757 0.250000
vt 0.915215 0.153243
vt 0.862973 0.056487
vt 0.862973 0.153243
vt 0.862973 0.266216
vt 0.915215 0.362973
vt 0.915215 0.266216
vt 0.915215 0.475946
vt 0.862973 0.572703
vt 0.915215 0.572703
vt 0.862973 0.685676
vt 0.915215 0.782433
vt 0.915215 0.685676
vt 0.653243 0.556487
vt 0.556487 0.653243
vt 0.556487 0.556487
vt 0.653243 0.653243
vt 0.556487 0.750000
vt 0.653243 0.750000
vt 0.556487 0.846757
vt 0.653243 0.846757
vt 0.556487 0.943513
vt 0.459730 0.846757
vt 0.459730 0.750000
vt 0.750000 0.750000
vt 0.653243 0.056487
vt 0.556487 0.153243
vt 0.556487 0.056487
vt 0.653243 0.153243
vt 0.556487 0.250000
vt 0.653243 0.250000
vt 0.556487 0.346757
vt 0.653243 0.346757
vt 0.556487 0.443513
vt 0.459730 0.346757
vt 0.459730 0.250000
vt 0.750000 0.250000
vt 0.206326 0.803083
vt 0.250000 0.943513
vt 0.346757 0.846757
vt 0.206878 0.293122
vt 0.196365 0.303635
vt 0.250000 0.443513
vt 0.346757 0.346757
vt 0.915215 0.056487
vt 0.862973 0.362973
vt 0.862973 0.475946
vt 0.862973 0.782433
vt 0.653243 0.943513
vt 0.750000 0.846757
vt 0.653243 0.443513
vt 0.750000 0.346757
s 0
usemtl マテリアル
f 3/1/1 5/2/1 1/3/1
f 7/4/2 13/5/2 5/2/2
f 15/6/3 11/7/3 19/8/3
f 9/9/3 17/10/3 20/11/3
f 11/7/4 1/12/4 9/9/4
f 13/5/5 1/13/5 5/14/5
f 7/15/6 11/7/6 15/6/6
f 6/16/3 4/17/3 2/18/3
f 14/19/4 8/20/4 6/16/4
f 16/21/1 23/22/1 12/23/1
f 14/19/1 10/24/1 22/25/1
f 2/26/2 12/23/2 10/24/2
f 2/27/6 14/19/6 6/28/6
f 12/23/5 8/29/5 16/21/5
f 17/30/4 24/31/4 22/32/4
f 18/33/2 21/34/2 23/35/2
f 17/36/6 21/37/6 20/38/6
f 19/39/5 23/40/5 24/41/5
f 26/42/1 27/43/1 25/44/1
f 28/45/2 31/46/2 27/43/2
f 32/47/3 29/48/3 31/46/3
f 30/49/4 25/50/4 29/48/4
f 31/46/5 25/51/5 27/52/5
f 28/53/6 30/49/6 32/47/6
f 34/54/7 35/55/7 33/56/7
f 36/57/2 39/58/2 35/55/2
f 40/59/8 37/60/8 39/58/8
f 38/61/4 33/62/4 37/60/4
f 39/58/9 33/63/9 35/64/9
f 36/65/10 38/61/10 40/59/10
f 3/1/1 7/4/1 5/2/1
f 7/4/2 15/6/2 13/5/2
f 17/10/3 13/5/3 15/6/3
f 11/7/3 9/9/3 20/11/3
f 11/7/3 20/11/3 18/66/3
f 19/8/3 17/10/3 15/6/3
f 11/7/3 18/66/3 19/8/3
f 9/9/3 13/5/3 17/10/3
f 11/7/4 3/67/4 1/12/4
f 13/5/5 9/9/5 1/13/5
f 7/15/6 3/68/6 11/7/6
f 6/16/3 8/20/3 4/17/3
f 14/19/4 16/21/4 8/20/4
f 16/21/1 24/69/1 23/22/1
f 22/25/1 24/69/1 16/21/1
f 10/24/1 12/23/1 21/70/1
f 12/23/1 23/22/1 21/70/1
f 22/25/1 16/21/1 14/19/1
f 10/24/1 21/70/1 22/25/1
f 2/26/2 4/71/2 12/23/2
f 2/27/6 10/24/6 14/19/6
f 12/23/5 4/72/5 8/29/5
f 17/30/4 19/73/4 24/31/4
f 18/33/2 20/74/2 21/34/2
f 17/36/6 22/75/6 21/37/6
f 19/39/5 18/76/5 23/40/5
f 26/42/1 28/45/1 27/43/1
f 28/45/2 32/47/2 31/46/2
f 32/47/3 30/49/3 29/48/3
f 30/49/4 26/77/4 25/50/4
f 31/46/5 29/48/5 25/51/5
f 28/53/6 26/78/6 30/49/6
f 34/54/7 36/57/7 35/55/7
f 36/57/2 40/59/2 39/58/2
f 40/59/8 38/61/8 37/60/8
f 38/61/4 34/79/4 33/62/4
f 39/58/9 37/60/9 33/63/9
f 36/65/10 34/80/10 38/61/10
