# Blender 4.1.1
# www.blender.org
mtllib miniBoss.mtl
o Cube.005
v 0.000000 0.061650 2.255895
v 0.000000 -0.046389 2.255895
v 2.255213 0.061650 0.000682
v 2.255213 -0.046389 0.000682
v 0.000000 0.061650 -2.254531
v 0.000000 -0.046389 -2.254531
v -0.000000 0.061650 -0.005577
v -0.000000 -0.046389 0.000151
v 0.000000 -0.358570 1.633604
v 0.000000 -0.466609 1.633604
v 1.632922 -0.358570 0.000682
v 1.632922 -0.466609 0.000682
v 0.000000 -0.358570 -1.632241
v 0.000000 -0.466609 -1.632241
v -0.000000 -0.358570 -0.003850
v -0.000000 -0.466609 0.000297
v 0.000000 -0.253650 1.787670
v 0.000000 -0.361689 1.787670
v 1.786989 -0.253650 0.000682
v 1.786989 -0.361689 0.000682
v 0.000000 -0.253650 -1.786307
v 0.000000 -0.361689 -1.786307
v -0.000000 -0.253650 -0.004278
v -0.000000 -0.361689 0.000261
v 0.000000 -0.150313 1.910586
v 0.000000 -0.258352 1.910586
v 1.909904 -0.150313 0.000682
v 1.909904 -0.258352 0.000682
v 0.000000 -0.150313 -1.909222
v 0.000000 -0.258352 -1.909222
v -0.000000 -0.150313 -0.004619
v -0.000000 -0.258352 0.000232
v 0.000000 -0.046261 2.092053
v 0.000000 -0.154300 2.092053
v 2.091372 -0.046261 0.000682
v 2.091372 -0.154300 0.000682
v 0.000000 -0.046261 -2.090690
v 0.000000 -0.154300 -2.090690
v -0.000000 -0.046261 -0.005122
v -0.000000 -0.154300 0.000189
v 0.000000 0.044679 2.092053
v 0.000000 0.152719 2.092053
v 2.091372 0.044679 0.000682
v 2.091372 0.152719 0.000682
v 0.000000 0.044679 -2.090690
v 0.000000 0.152719 -2.090690
v -0.000000 0.044679 -0.005122
v -0.000000 0.152719 0.000189
v 0.000000 0.148731 1.910586
v 0.000000 0.256771 1.910586
v 1.909904 0.148731 0.000682
v 1.909904 0.256771 0.000682
v 0.000000 0.148731 -1.909222
v 0.000000 0.256771 -1.909222
v -0.000000 0.148731 -0.004619
v -0.000000 0.256771 0.000232
v 0.000000 0.252068 1.787670
v 0.000000 0.360108 1.787670
v 1.786989 0.252068 0.000682
v 1.786989 0.360108 0.000682
v 0.000000 0.252068 -1.786307
v 0.000000 0.360108 -1.786307
v -0.000000 0.252068 -0.004278
v -0.000000 0.360108 0.000261
v 0.000000 0.356988 1.633604
v 0.000000 0.465028 1.633604
v 1.632922 0.356988 0.000682
v 1.632922 0.465028 0.000682
v 0.000000 0.356988 -1.632241
v 0.000000 0.465028 -1.632241
v -0.000000 0.356988 -0.003850
v -0.000000 0.465028 0.000297
v 0.000000 0.457732 1.414895
v 0.000000 0.551301 1.414895
v 1.414214 0.457732 0.000682
v 1.414214 0.551301 0.000682
v 0.000000 0.457732 -1.413532
v 0.000000 0.551301 -1.413532
v -0.000000 0.457732 -0.003243
v -0.000000 1.208936 0.000349
v 0.000000 -0.459037 1.414895
v 0.000000 -0.552606 1.414895
v 1.414214 -0.459037 0.000682
v 1.414214 -0.552606 0.000682
v 0.000000 -0.459037 -1.413532
v 0.000000 -0.552606 -1.413532
v -0.000000 -0.459037 -0.003243
v -0.000000 -1.210240 0.000349
v -0.000000 -0.459037 1.414895
v -0.000000 -0.552606 1.414895
v -1.414214 -0.459037 0.000681
v -1.414214 -0.552606 0.000681
v 0.000000 -0.459037 -1.413532
v 0.000000 -0.552606 -1.413532
v -0.000000 -0.459037 -0.003243
v -0.000000 -1.210240 0.000349
v -0.000000 0.457732 1.414895
v -0.000000 0.551301 1.414895
v -1.414214 0.457732 0.000681
v -1.414214 0.551301 0.000681
v 0.000000 0.457732 -1.413532
v 0.000000 0.551301 -1.413532
v -0.000000 0.457732 -0.003243
v -0.000000 1.208936 0.000349
v -0.000000 0.356988 1.633604
v -0.000000 0.465028 1.633604
v -1.632923 0.356988 0.000681
v -1.632923 0.465028 0.000681
v 0.000000 0.356988 -1.632241
v 0.000000 0.465028 -1.632241
v -0.000000 0.356988 -0.003850
v -0.000000 0.465028 0.000297
v -0.000000 0.252068 1.787671
v -0.000000 0.360108 1.787671
v -1.786989 0.252068 0.000681
v -1.786989 0.360108 0.000681
v 0.000000 0.252068 -1.786307
v 0.000000 0.360108 -1.786307
v -0.000000 0.252068 -0.004278
v -0.000000 0.360108 0.000261
v -0.000000 0.148731 1.910586
v -0.000000 0.256771 1.910586
v -1.909904 0.148731 0.000681
v -1.909904 0.256771 0.000681
v 0.000000 0.148731 -1.909222
v 0.000000 0.256771 -1.909222
v -0.000000 0.148731 -0.004619
v -0.000000 0.256771 0.000232
v -0.000000 0.044679 2.092053
v -0.000000 0.152719 2.092053
v -2.091371 0.044679 0.000681
v -2.091371 0.152719 0.000681
v 0.000000 0.044679 -2.090689
v 0.000000 0.152719 -2.090689
v -0.000000 0.044679 -0.005122
v -0.000000 0.152719 0.000189
v -0.000000 0.061650 2.255895
v -0.000000 -0.046389 2.255895
v -2.255213 0.061650 0.000681
v -2.255213 -0.046389 0.000681
v 0.000000 0.061650 -2.254531
v 0.000000 -0.046389 -2.254531
v -0.000000 0.061650 -0.005577
v -0.000000 -0.046389 0.000151
v -0.000000 -0.046261 2.092053
v -0.000000 -0.154300 2.092053
v -2.091371 -0.046261 0.000681
v -2.091371 -0.154300 0.000681
v 0.000000 -0.046261 -2.090689
v 0.000000 -0.154300 -2.090689
v -0.000000 -0.046261 -0.005122
v -0.000000 -0.154300 0.000189
v -0.000000 -0.150313 1.910586
v -0.000000 -0.258352 1.910586
v -1.909904 -0.150313 0.000681
v -1.909904 -0.258352 0.000681
v 0.000000 -0.150313 -1.909222
v 0.000000 -0.258352 -1.909222
v -0.000000 -0.150313 -0.004619
v -0.000000 -0.258352 0.000232
v -0.000000 -0.253650 1.787671
v -0.000000 -0.361689 1.787671
v -1.786989 -0.253650 0.000681
v -1.786989 -0.361689 0.000681
v 0.000000 -0.253650 -1.786307
v 0.000000 -0.361689 -1.786307
v -0.000000 -0.253650 -0.004278
v -0.000000 -0.361689 0.000261
v -0.000000 -0.358570 1.633604
v -0.000000 -0.466609 1.633604
v -1.632923 -0.358570 0.000681
v -1.632923 -0.466609 0.000681
v 0.000000 -0.358570 -1.632241
v 0.000000 -0.466609 -1.632241
v -0.000000 -0.358570 -0.003850
v -0.000000 -0.466609 0.000297
vn -0.0000 1.0000 -0.0000
vn 0.7071 -0.0000 -0.7071
vn 0.7071 -0.0000 0.7071
vn -1.0000 -0.0000 -0.0000
vn -0.0000 -1.0000 -0.0000
vn -0.7071 -0.0000 0.7071
vn -0.7071 -0.0000 -0.7071
vn 1.0000 -0.0000 -0.0000
vn -0.3885 -0.8356 -0.3885
vn -0.3886 -0.8355 0.3886
vn 0.3885 -0.8356 0.3885
vn 0.3886 -0.8355 -0.3886
vn 0.3885 0.8356 -0.3885
vn 0.3886 0.8355 0.3886
vn -0.3885 0.8356 0.3885
vn -0.3886 0.8355 -0.3886
vt 0.095521 0.157909
vt 0.125611 0.209274
vt 0.084854 0.198749
vt 0.123659 0.042205
vt 0.125611 0.042715
vt 0.110566 0.100312
vt 0.108615 0.099802
vt 0.093570 0.157399
vt 0.082930 0.198136
vt 0.042205 0.187488
vt 0.074245 0.239363
vt 0.072294 0.238854
vt 0.862204 0.582664
vt 0.840418 0.545472
vt 0.869928 0.553093
vt 0.842369 0.666581
vt 0.840418 0.666072
vt 0.851311 0.624368
vt 0.853262 0.624877
vt 0.864155 0.583173
vt 0.871860 0.553677
vt 0.901347 0.561387
vt 0.877610 0.523685
vt 0.879561 0.524195
vt 0.066047 0.655598
vt 0.042205 0.614897
vt 0.074500 0.623237
vt 0.044156 0.747385
vt 0.042205 0.746876
vt 0.054126 0.701237
vt 0.056077 0.701746
vt 0.067998 0.656108
vt 0.076430 0.623828
vt 0.108699 0.632266
vt 0.082906 0.591055
vt 0.084857 0.591565
vt 0.583235 0.111697
vt 0.539734 0.086215
vt 0.574201 0.077110
vt 0.610668 0.208744
vt 0.608717 0.209253
vt 0.595976 0.160475
vt 0.597927 0.159966
vt 0.585186 0.111188
vt 0.576175 0.076688
vt 0.610668 0.067687
vt 0.565216 0.042715
vt 0.567168 0.042205
vt 0.425470 0.118251
vt 0.377836 0.090348
vt 0.415577 0.080378
vt 0.455324 0.224567
vt 0.453373 0.225077
vt 0.439422 0.171664
vt 0.441373 0.171154
vt 0.427421 0.117742
vt 0.417554 0.079965
vt 0.455324 0.070108
vt 0.405740 0.042715
vt 0.407691 0.042205
vt 0.091790 0.431108
vt 0.119693 0.478742
vt 0.081897 0.468981
vt 0.117742 0.323773
vt 0.119693 0.324283
vt 0.105741 0.377696
vt 0.103790 0.377186
vt 0.089839 0.430599
vt 0.079971 0.468376
vt 0.042205 0.458502
vt 0.072059 0.506645
vt 0.070108 0.506135
vt 0.583235 0.363156
vt 0.539734 0.337674
vt 0.574201 0.328569
vt 0.610668 0.460202
vt 0.608717 0.460712
vt 0.595976 0.411934
vt 0.597927 0.411424
vt 0.585186 0.362646
vt 0.576175 0.328147
vt 0.610668 0.319145
vt 0.565216 0.294173
vt 0.567168 0.293663
vt 0.718920 0.106748
vt 0.695078 0.066047
vt 0.727373 0.074387
vt 0.697029 0.198535
vt 0.695078 0.198026
vt 0.706999 0.152387
vt 0.708950 0.152896
vt 0.720871 0.107258
vt 0.729303 0.074979
vt 0.761572 0.083416
vt 0.735779 0.042205
vt 0.737730 0.042715
vt 0.877610 0.810480
vt 0.840418 0.788693
vt 0.869886 0.780909
vt 0.901347 0.893378
vt 0.899396 0.893888
vt 0.888503 0.852184
vt 0.890454 0.851674
vt 0.879561 0.809970
vt 0.871856 0.780474
vt 0.901347 0.772778
vt 0.862204 0.751501
vt 0.864155 0.750992
vt 0.396928 0.879041
vt 0.377836 0.840471
vt 0.403645 0.851661
vt 0.379668 0.957795
vt 0.377836 0.957348
vt 0.387382 0.918195
vt 0.389214 0.918641
vt 0.398760 0.879487
vt 0.414591 0.856506
vt 0.440170 0.867669
vt 0.419092 0.828227
vt 0.420669 0.829265
vt 0.889224 0.334942
vt 0.908316 0.373512
vt 0.882508 0.362322
vt 0.906484 0.256186
vt 0.908316 0.256632
vt 0.898770 0.295788
vt 0.896938 0.295341
vt 0.887392 0.334496
vt 0.871561 0.357477
vt 0.845982 0.346314
vt 0.867060 0.385756
vt 0.865483 0.384718
vt 0.558826 0.847394
vt 0.539734 0.808825
vt 0.565543 0.820014
vt 0.541566 0.926148
vt 0.539734 0.925702
vt 0.549280 0.886548
vt 0.551112 0.886994
vt 0.560658 0.847841
vt 0.576489 0.824859
vt 0.602068 0.836023
vt 0.580990 0.796580
vt 0.582567 0.797618
vt 0.889224 0.120962
vt 0.908316 0.159531
vt 0.882508 0.148341
vt 0.906484 0.042205
vt 0.908316 0.042652
vt 0.898770 0.081807
vt 0.896938 0.081360
vt 0.887392 0.120515
vt 0.871561 0.143497
vt 0.845982 0.132333
vt 0.867060 0.171776
vt 0.865484 0.170737
vt 0.734221 0.607603
vt 0.756008 0.644795
vt 0.726497 0.637174
vt 0.754057 0.523686
vt 0.756008 0.524195
vt 0.745114 0.565899
vt 0.743163 0.565390
vt 0.732270 0.607094
vt 0.724566 0.636590
vt 0.695078 0.628880
vt 0.718816 0.666582
vt 0.716865 0.666072
vt 0.720871 0.374223
vt 0.761572 0.398065
vt 0.729324 0.406584
vt 0.695078 0.283455
vt 0.697029 0.282945
vt 0.708950 0.328584
vt 0.706999 0.329094
vt 0.718920 0.374732
vt 0.727352 0.407011
vt 0.695078 0.415433
vt 0.737730 0.438766
vt 0.735779 0.439275
vt 0.567167 0.642678
vt 0.610668 0.668160
vt 0.576202 0.677265
vt 0.539734 0.545631
vt 0.541686 0.545122
vt 0.554426 0.593900
vt 0.552475 0.594409
vt 0.565216 0.643187
vt 0.574228 0.677687
vt 0.539734 0.686688
vt 0.585186 0.711660
vt 0.583235 0.712170
vt 0.251737 0.399820
vt 0.204103 0.371917
vt 0.241844 0.361947
vt 0.281591 0.506135
vt 0.279640 0.506645
vt 0.265688 0.453232
vt 0.267639 0.452723
vt 0.253688 0.399310
vt 0.243820 0.361533
vt 0.281591 0.351676
vt 0.232006 0.324283
vt 0.233957 0.323773
vt 0.240110 0.123660
vt 0.210021 0.072294
vt 0.250777 0.082819
vt 0.211972 0.239363
vt 0.210021 0.238853
vt 0.225065 0.181256
vt 0.227016 0.181766
vt 0.242061 0.124169
vt 0.252702 0.083432
vt 0.293426 0.094080
vt 0.261386 0.042205
vt 0.263337 0.042715
vt 0.427421 0.416822
vt 0.455324 0.464455
vt 0.417529 0.454695
vt 0.453373 0.309487
vt 0.455324 0.309996
vt 0.441373 0.363409
vt 0.439422 0.362899
vt 0.425470 0.416312
vt 0.415603 0.454089
vt 0.377836 0.444215
vt 0.407691 0.492358
vt 0.405740 0.491849
vt 0.405270 0.674325
vt 0.448770 0.699807
vt 0.414304 0.708912
vt 0.377836 0.577278
vt 0.379788 0.576769
vt 0.392529 0.625547
vt 0.390577 0.626056
vt 0.403318 0.674834
vt 0.412330 0.709334
vt 0.377836 0.718335
vt 0.423288 0.743307
vt 0.421337 0.743817
vt 0.233810 0.656108
vt 0.193109 0.632266
vt 0.225357 0.623747
vt 0.259603 0.746876
vt 0.257652 0.747385
vt 0.245731 0.701746
vt 0.247682 0.701237
vt 0.235761 0.655598
vt 0.227330 0.623319
vt 0.259603 0.614897
vt 0.216951 0.591565
vt 0.218902 0.591055
vt 0.734221 0.834909
vt 0.756008 0.872101
vt 0.726497 0.864480
vt 0.754057 0.750992
vt 0.756008 0.751501
vt 0.745114 0.793205
vt 0.743163 0.792696
vt 0.732270 0.834400
vt 0.724566 0.863896
vt 0.695078 0.856186
vt 0.718816 0.893888
vt 0.716865 0.893378
s 0
usemtl マテリアル
f 1/1/1 3/2/1 7/3/1
f 6/4/2 5/5/2 3/6/2 4/7/2
f 4/7/3 3/6/3 1/1/3 2/8/3
f 2/8/4 1/1/4 7/3/4 8/9/4
f 4/10/5 2/8/5 8/9/5
f 7/3/1 3/2/1 5/11/1
f 8/9/4 7/3/4 5/11/4 6/12/4
f 8/9/5 6/12/5 4/10/5
f 9/13/1 11/14/1 15/15/1
f 14/16/2 13/17/2 11/18/2 12/19/2
f 12/19/3 11/18/3 9/13/3 10/20/3
f 10/20/4 9/13/4 15/15/4 16/21/4
f 12/22/5 10/20/5 16/21/5
f 15/15/1 11/14/1 13/23/1
f 16/21/4 15/15/4 13/23/4 14/24/4
f 16/21/5 14/24/5 12/22/5
f 17/25/1 19/26/1 23/27/1
f 22/28/2 21/29/2 19/30/2 20/31/2
f 20/31/3 19/30/3 17/25/3 18/32/3
f 18/32/4 17/25/4 23/27/4 24/33/4
f 20/34/5 18/32/5 24/33/5
f 23/27/1 19/26/1 21/35/1
f 24/33/4 23/27/4 21/35/4 22/36/4
f 24/33/5 22/36/5 20/34/5
f 25/37/1 27/38/1 31/39/1
f 30/40/2 29/41/2 27/42/2 28/43/2
f 28/43/3 27/42/3 25/37/3 26/44/3
f 26/44/4 25/37/4 31/39/4 32/45/4
f 28/46/5 26/44/5 32/45/5
f 31/39/1 27/38/1 29/47/1
f 32/45/4 31/39/4 29/47/4 30/48/4
f 32/45/5 30/48/5 28/46/5
f 33/49/1 35/50/1 39/51/1
f 38/52/2 37/53/2 35/54/2 36/55/2
f 36/55/3 35/54/3 33/49/3 34/56/3
f 34/56/4 33/49/4 39/51/4 40/57/4
f 36/58/5 34/56/5 40/57/5
f 39/51/1 35/50/1 37/59/1
f 40/57/4 39/51/4 37/59/4 38/60/4
f 40/57/5 38/60/5 36/58/5
f 41/61/1 43/62/1 47/63/1
f 46/64/6 45/65/6 43/66/6 44/67/6
f 44/67/7 43/66/7 41/61/7 42/68/7
f 42/68/8 41/61/8 47/63/8 48/69/8
f 44/70/5 42/68/5 48/69/5
f 47/63/1 43/62/1 45/71/1
f 48/69/8 47/63/8 45/71/8 46/72/8
f 48/69/5 46/72/5 44/70/5
f 49/73/1 51/74/1 55/75/1
f 54/76/6 53/77/6 51/78/6 52/79/6
f 52/79/7 51/78/7 49/73/7 50/80/7
f 50/80/8 49/73/8 55/75/8 56/81/8
f 52/82/5 50/80/5 56/81/5
f 55/75/1 51/74/1 53/83/1
f 56/81/8 55/75/8 53/83/8 54/84/8
f 56/81/5 54/84/5 52/82/5
f 57/85/1 59/86/1 63/87/1
f 62/88/6 61/89/6 59/90/6 60/91/6
f 60/91/7 59/90/7 57/85/7 58/92/7
f 58/92/8 57/85/8 63/87/8 64/93/8
f 60/94/5 58/92/5 64/93/5
f 63/87/1 59/86/1 61/95/1
f 64/93/8 63/87/8 61/95/8 62/96/8
f 64/93/5 62/96/5 60/94/5
f 65/97/1 67/98/1 71/99/1
f 70/100/6 69/101/6 67/102/6 68/103/6
f 68/103/7 67/102/7 65/97/7 66/104/7
f 66/104/8 65/97/8 71/99/8 72/105/8
f 68/106/5 66/104/5 72/105/5
f 71/99/1 67/98/1 69/107/1
f 72/105/8 71/99/8 69/107/8 70/108/8
f 72/105/5 70/108/5 68/106/5
f 73/109/1 75/110/1 79/111/1
f 78/112/6 77/113/6 75/114/6 76/115/6
f 76/115/7 75/114/7 73/109/7 74/116/7
f 74/116/8 73/109/8 79/111/8 80/117/8
f 76/118/9 74/116/9 80/117/9
f 79/111/1 75/110/1 77/119/1
f 80/117/8 79/111/8 77/119/8 78/120/8
f 80/117/10 78/120/10 76/118/10
f 81/121/1 83/122/1 87/123/1
f 86/124/2 85/125/2 83/126/2 84/127/2
f 84/127/3 83/126/3 81/121/3 82/128/3
f 82/128/4 81/121/4 87/123/4 88/129/4
f 84/130/11 82/128/11 88/129/11
f 87/123/1 83/122/1 85/131/1
f 88/129/4 87/123/4 85/131/4 86/132/4
f 88/129/12 86/132/12 84/130/12
f 89/133/5 91/134/5 95/135/5
f 94/136/3 93/137/3 91/138/3 92/139/3
f 92/139/2 91/138/2 89/133/2 90/140/2
f 90/140/4 89/133/4 95/135/4 96/141/4
f 92/142/13 90/140/13 96/141/13
f 95/135/5 91/134/5 93/143/5
f 96/141/4 95/135/4 93/143/4 94/144/4
f 96/141/14 94/144/14 92/142/14
f 97/145/5 99/146/5 103/147/5
f 102/148/7 101/149/7 99/150/7 100/151/7
f 100/151/6 99/150/6 97/145/6 98/152/6
f 98/152/8 97/145/8 103/147/8 104/153/8
f 100/154/15 98/152/15 104/153/15
f 103/147/5 99/146/5 101/155/5
f 104/153/8 103/147/8 101/155/8 102/156/8
f 104/153/16 102/156/16 100/154/16
f 105/157/5 107/158/5 111/159/5
f 110/160/7 109/161/7 107/162/7 108/163/7
f 108/163/6 107/162/6 105/157/6 106/164/6
f 106/164/8 105/157/8 111/159/8 112/165/8
f 108/166/1 106/164/1 112/165/1
f 111/159/5 107/158/5 109/167/5
f 112/165/8 111/159/8 109/167/8 110/168/8
f 112/165/1 110/168/1 108/166/1
f 113/169/5 115/170/5 119/171/5
f 118/172/7 117/173/7 115/174/7 116/175/7
f 116/175/6 115/174/6 113/169/6 114/176/6
f 114/176/8 113/169/8 119/171/8 120/177/8
f 116/178/1 114/176/1 120/177/1
f 119/171/5 115/170/5 117/179/5
f 120/177/8 119/171/8 117/179/8 118/180/8
f 120/177/1 118/180/1 116/178/1
f 121/181/5 123/182/5 127/183/5
f 126/184/7 125/185/7 123/186/7 124/187/7
f 124/187/6 123/186/6 121/181/6 122/188/6
f 122/188/8 121/181/8 127/183/8 128/189/8
f 124/190/1 122/188/1 128/189/1
f 127/183/5 123/182/5 125/191/5
f 128/189/8 127/183/8 125/191/8 126/192/8
f 128/189/1 126/192/1 124/190/1
f 129/193/5 131/194/5 135/195/5
f 134/196/7 133/197/7 131/198/7 132/199/7
f 132/199/6 131/198/6 129/193/6 130/200/6
f 130/200/8 129/193/8 135/195/8 136/201/8
f 132/202/1 130/200/1 136/201/1
f 135/195/5 131/194/5 133/203/5
f 136/201/8 135/195/8 133/203/8 134/204/8
f 136/201/1 134/204/1 132/202/1
f 137/205/5 139/206/5 143/207/5
f 142/208/3 141/209/3 139/210/3 140/211/3
f 140/211/2 139/210/2 137/205/2 138/212/2
f 138/212/4 137/205/4 143/207/4 144/213/4
f 140/214/1 138/212/1 144/213/1
f 143/207/5 139/206/5 141/215/5
f 144/213/4 143/207/4 141/215/4 142/216/4
f 144/213/1 142/216/1 140/214/1
f 145/217/5 147/218/5 151/219/5
f 150/220/3 149/221/3 147/222/3 148/223/3
f 148/223/2 147/222/2 145/217/2 146/224/2
f 146/224/4 145/217/4 151/219/4 152/225/4
f 148/226/1 146/224/1 152/225/1
f 151/219/5 147/218/5 149/227/5
f 152/225/4 151/219/4 149/227/4 150/228/4
f 152/225/1 150/228/1 148/226/1
f 153/229/5 155/230/5 159/231/5
f 158/232/3 157/233/3 155/234/3 156/235/3
f 156/235/2 155/234/2 153/229/2 154/236/2
f 154/236/4 153/229/4 159/231/4 160/237/4
f 156/238/1 154/236/1 160/237/1
f 159/231/5 155/230/5 157/239/5
f 160/237/4 159/231/4 157/239/4 158/240/4
f 160/237/1 158/240/1 156/238/1
f 161/241/5 163/242/5 167/243/5
f 166/244/3 165/245/3 163/246/3 164/247/3
f 164/247/2 163/246/2 161/241/2 162/248/2
f 162/248/4 161/241/4 167/243/4 168/249/4
f 164/250/1 162/248/1 168/249/1
f 167/243/5 163/242/5 165/251/5
f 168/249/4 167/243/4 165/251/4 166/252/4
f 168/249/1 166/252/1 164/250/1
f 169/253/5 171/254/5 175/255/5
f 174/256/3 173/257/3 171/258/3 172/259/3
f 172/259/2 171/258/2 169/253/2 170/260/2
f 170/260/4 169/253/4 175/255/4 176/261/4
f 172/262/1 170/260/1 176/261/1
f 175/255/5 171/254/5 173/263/5
f 176/261/4 175/255/4 173/263/4 174/264/4
f 176/261/1 174/264/1 172/262/1
